<?xml version="1.0" encoding="UTF-8"?>
<svg id="Layer_1" data-name="Layer 1" xmlns="http://www.w3.org/2000/svg" viewBox="0 0 144 144">
  <defs>
    <style>
      .cls-1 {
        fill: #fff;
      }
    </style>
  </defs>
  <rect width="144" height="144"/>
  <g>
    <path class="cls-1" d="M37.22,86.74v-23.32h-8.53v-11.98h3.78c4.21,0,6.58-2.38,6.58-6.48v-8.42h12.85v13.82h11.33v13.06h-11.33v21.81c0,5.28,2.92,7.77,7.56,7.77,1.4,0,2.7-.22,3.77-.76v13.39c-1.51.54-4.1,1.19-7.44,1.19-10.8,0-18.57-7.45-18.57-20.07Z"/>
    <path class="cls-1" d="M68.87,88.14h14.36c.33,4.1,3.56,6.91,8.42,6.91s7.23-2.37,7.23-5.07c0-9.61-28.71-5.29-28.71-24.4,0-9.28,7.45-16.62,21.05-16.62,12.85,0,20.94,7.99,21.69,18.13h-14.47c-.42-3.67-2.48-6.36-7.22-6.36-4.32,0-6.37,2.05-6.37,4.42,0,8.96,28.71,4.32,28.71,23.97,0,10.14-7.66,17.7-21.91,17.7s-22.35-8.2-22.78-18.68Z"/>
  </g>
</svg>