<?xml version="1.0" encoding="UTF-8"?>
<svg id="Layer_1" data-name="Layer 1" xmlns="http://www.w3.org/2000/svg" viewBox="0 0 16 16">
  <defs>
    <style>
      .cls-1 {
        fill: #fff;
      }
    </style>
  </defs>
  <rect width="16" height="16"/>
  <g>
    <path class="cls-1" d="M4.14,9.64v-2.59h-.95v-1.33h.42c.47,0,.73-.26.73-.72v-.94h1.43v1.54h1.26v1.45h-1.26v2.42c0,.59.32.86.84.86.16,0,.3-.02.42-.08v1.49c-.17.06-.46.13-.83.13-1.2,0-2.06-.83-2.06-2.23Z"/>
    <path class="cls-1" d="M7.65,9.79h1.6c.04.46.4.77.94.77s.8-.26.8-.56c0-1.07-3.19-.59-3.19-2.71,0-1.03.83-1.85,2.34-1.85,1.43,0,2.33.89,2.41,2.01h-1.61c-.05-.41-.28-.71-.8-.71-.48,0-.71.23-.71.49,0,1,3.19.48,3.19,2.66,0,1.13-.85,1.97-2.43,1.97s-2.48-.91-2.53-2.08Z"/>
  </g>
</svg>